PathFileType	4	(X/Y/Z)	C:/Users/beibeiliu/ov580/test_trc/capture2\sequence.32_training_dense_right.trc
DataRate	CameraRate	NumFrames	NumMarkers	Units	OrigDataRate	OrigDataStartFrame	OrigNumFrames
120	120	12	19	mm	120	82	327
Frame#	Time	ThumbCMC			ThumbMCP			ThumbIP			ThumbTip			IndexMCP			IndexPIP			IndexTip			MiddleMCP			MiddlePIP			MiddleTip			RingMCP			RingPIP			RingTip			PinkyMCP			PinkyPIP			PinkyTip			BackHand1			BackHand2			BackHand3	
		X0	Y0	Z0	X1	Y1	Z1	X2	Y2	Z2	X3	Y3	Z3	X4	Y4	Z4	X5	Y5	Z5	X6	Y6	Z6	X7	Y7	Z7	X8	Y8	Z8	X9	Y9	Z9	X10	Y10	Z10	X11	Y11	Z11	X12	Y12	Z12	X13	Y13	Z13	X14	Y14	Z14	X15	Y15	Z15	X16	Y16	Z16	X17	Y17	Z17	X18	Y18	Z18	
81	0.675	121.863	60.4715	82.1622	91.5443	57.3701	60.6352	78.1429	46.9641	37.9348	79.4665	23.4094	25.5857	149.01	44.9169	13.5128	146.727	41.7617	-10.8296	148.87	34.6464	-34.6752	150.471	21.4749	9.05698	146.891	18.3538	-17.5606	145.633	18.5384	-43.6548	134.053	3.57245	14.7082	106.618	9.40827	-1.41329	81.3434	18.0557	20.015	114.091	-6.83506	29.3187	87.1174	3.86197	34.3517	88.1602	22.1613	60.6315	152.272	6.74155	69.5494	154.553	6.08984	97.7624	156.357	35.1489	78.2598	
82	0.683333	119.705	62.5014	80.3872	90.1229	56.0086	59.6452	78.9581	41.2687	37.0067	78.8953	18.8915	24.7116	146.46	41.748	12.4356	145.32	41.156	-9.49435	145.27	33.856	-30.5703	149.477	24.7211	11.5049	148.75	24.4407	-12.4589	146.87	18.5302	-46.1618	136.251	4.4513	13.6983	113.825	6.65078	-7.89014	85.6455	12.9315	-5.71524	115.686	-6.92419	30.3275	86.057	3.45582	32.1927	85.432	22.2984	56.5234	150.914	5.00287	63.9795	154.761	8.55923	93.4159	154.839	37.3835	74.8514	
83	0.691667	120.438	58.9937	81.8732	87.7262	55.5429	58.4184	76.4677	42.291	37.9861	78.1442	16.9721	24.9288	145.371	42.47	14.8726	144.123	43.4786	-12.4023	145.325	38.4446	-34.9275	148.278	22.9897	12.3167	146.94	22.3057	-13.3572	146.374	19.9713	-42.4919	134.771	6.799	17.0599	119.531	1.90271	-7.74804	91.3661	10.5653	-23.4976	109.945	-4.66561	27.9297	84.6577	8.70812	32.2657	83.8479	24.2238	56.6237	149.651	3.35561	65.3376	151.516	5.58699	97.4941	156.073	36.4947	75.4231	
84	0.7	119.776	59.0194	82.1074	90.1433	52.9481	59.4465	75.8483	39.3619	35.84	79.3794	16.1125	28.0863	145.558	48.0488	12.7641	141.79	42.4828	-11.4581	143.79	37.7527	-34.0247	145.666	26.6072	12.8963	146.57	23.8283	-16.6779	147.151	18.3872	-43.3274	133.762	8.36112	13.1507	120.256	-0.242196	-9.49952	101.359	8.09839	-29.5559	111.949	-5.78303	31.4124	81.7716	5.08304	32.5012	83.574	24.4295	56.7859	148.748	8.7422	62.6282	151.366	6.93442	93.7218	153.753	35.3951	74.4787	
85	0.708333	119.777	58.66	81.0799	88.8013	54.7184	60.326	78.7168	38.2224	38.2346	77.4721	16.7574	25.6284	143.686	46.7965	16.0301	142.544	44.4165	-9.52756	144.615	38.3521	-33.4732	145.942	28.4127	8.8194	144.744	23.194	-12.4742	147.443	21.0209	-43.5598	131.256	4.34584	13.8044	123.161	4.60518	-8.01089	107.777	1.91102	-33.2324	107.739	-2.72261	28.9487	81.6782	7.33228	32.2586	85.4206	25.7237	59.9861	147.338	8.17499	66.4307	148.95	7.16632	97.6154	153.849	34.9916	79.4285	
86	0.716667	119.194	60.369	81.7069	87.0484	57.3365	62.1798	75.6887	41.6873	35.5971	75.889	19.1727	24.8615	144.41	47.0342	13.7729	141.396	45.12	-6.6395	145.172	36.5332	-33.9327	145.537	26.399	11.523	145.005	24.2014	-14.5928	146.565	23.5016	-43.5949	131.761	5.60256	12.3733	124.504	6.35061	-10.897	114.804	6.80773	-35.9147	108.954	-1.77549	29.5411	82.5859	11.0768	30.6098	81.6731	25.0203	57.689	145.467	7.12522	64.4218	151.317	5.71312	95.6491	154.734	36.1604	75.7783	
87	0.725	119.035	59.8787	85.4238	88.4786	55.7182	59.6984	74.5518	42.9372	36.0009	78.3286	16.9818	24.21	144.053	46.0521	15.3019	141.91	45.7223	-6.1816	146.24	43.1104	-29.2538	145.951	28.6118	9.79631	144.797	28.7112	-13.2581	146.765	22.5808	-39.5087	133.355	8.18752	13.7933	126.2	3.54869	-9.85548	120.169	4.26915	-33.4298	109.488	-4.05142	28.3664	84.121	8.87443	28.8736	82.0281	21.9234	59.3395	147.255	5.72443	66.7607	148.609	7.38791	94.1644	152.748	36.7135	79.6909	
88	0.733333	118.893	60.1749	87.3935	86.2745	58.6411	62.3536	76.4627	44.2036	40.0724	79.8697	18.497	28.6438	143.449	46.0373	17.4305	143.124	43.7698	-9.0083	146.917	41.8432	-31.8851	145.604	25.2192	10.9153	145	25.4214	-11.2472	148.743	24.4134	-39.8078	133.487	11.3065	13.2841	127.727	6.16572	-10.9528	122.529	0.893775	-36.4047	113.47	-1.63143	28.7201	83.7139	7.77491	26.6283	81.5756	23.1906	56.8302	145.391	9.52476	63.3794	149.746	9.54583	92.8037	153.768	38.5417	78.0964	
89	0.741667	118.99	59.8657	82.2973	87.5445	57.2939	63.2954	74.9844	44.6572	37.7865	78.3457	20.9653	29.6721	143.414	48.2147	17.3824	142.913	49.0726	-5.559	147.889	37.9021	-30.2203	144.729	26.6423	13.1921	146.101	27.6015	-13.8907	148.724	25.3374	-41.7459	134.153	11.0428	13.7199	128.238	4.56152	-7.5294	124.831	5.43108	-33.0884	113.516	-4.02211	27.1734	88.3396	7.21273	21.3258	77.979	20.829	49.247	145.666	6.37359	67.2976	148.464	6.02433	93.7597	154.74	39.9671	75.8456	
90	0.75	118.243	61.4746	84.8471	86.7654	57.7423	60.1694	75.1833	43.7244	35.1491	76.9832	18.6404	25.0993	145.102	51.0032	15.5519	142.214	45.6112	-5.80253	146.669	41.6259	-28.162	145.08	26.9935	14.5981	145.64	28.2534	-12.873	148.775	24.2911	-37.7537	133.935	8.20709	16.66	128.317	6.33705	-11.467	124.061	3.58305	-36.0957	115.157	-2.24726	28.4314	86.841	5.44655	21.2272	79.637	20.2495	46.0079	145.638	9.4269	63.6804	149.094	10.5409	97.8753	155.088	40.9309	76.4558	
91	0.758333	119.81	58.6816	83.8232	87.568	58.3281	59.1698	75.8909	45.3612	41.1074	75.5753	22.2209	24.6169	143.845	47.3551	16.3147	143.248	47.8304	-9.83333	146.466	41.22	-30.0237	144.759	27.8613	12.4748	146.234	27.2193	-16.2906	148.924	24.1076	-40.3876	133.837	10.3437	14.5347	128.109	4.2038	-11.7563	124	5.7698	-33.3221	113.749	-4.38616	27.6504	86.2183	9.26708	22.1223	79.4788	21.5875	47.3999	145.564	7.60092	63.2427	148.537	7.18206	96.0251	153.632	39.6645	79.3402	
92	0.766667	119.822	60.3603	81.8094	90.6709	55.7121	61.6043	75.8541	47.0585	38.6584	78.8101	22.5217	26.8263	144.229	49.8945	16.0112	144.313	47.9893	-9.78524	146.604	39.544	-29.6266	145.389	27.9363	12.5434	145.698	28.9177	-14.6816	147.388	20.7473	-37.5797	132.857	11.448	15.0029	128.495	5.47136	-6.4576	123.029	2.82623	-36.7659	111.087	-1.49283	24.5268	87.0589	9.95998	21.2305	80.9676	24.8613	51.6299	144.926	6.42196	64.9751	147.748	5.29076	97.3632	152.155	38.3174	79.0052	
